#!OML:ASF F:\VICON\USERDATA\INSTALL\rory3\rory3.ASF
:FULLY-SPECIFIED
:DEGREES
50
root 0.7918498095183378 17.680430536981792 16.676899782696637 -1.2565833497005685 -1.765128302323916 -6.64827636588682
lfemur -24.653999822289272 -3.470919194674794 -12.57897989136001
ltibia 19.180164009602578
lfoot -7.127351890540519 0.7812925163158573
ltoes -7.321663160601595
rfemur 7.308986227487109 3.820068267304627 33.44845878176185
rtibia 27.173634431473474
rfoot -16.913158043567734 -5.833286215796937
rtoes -4.623471901540373
lowerback 9.926533199913887 2.2776351809392197 6.19783250950219
upperback -0.40320961518895293 3.982918844761106 1.8956393148331778
thorax -5.984841583544897 1.7835880428589634 -2.3306939432499654
lowerneck -16.186988510649986 -3.274097674701872 -2.4253138311972364
upperneck 22.332363086321045 -4.27342846066931 1.503465561400564
head 9.808332618444776 -1.9980690935975864 0.4412440918952724
lclavicle -2.0290040902469857e-15 -7.133716218085104e-16
lhumerus -37.580124800890005 9.75964825094767 79.52442593723008
lradius 19.51294764568835
lwrist 4.419690800282094
lhand -29.092755826669414 18.715014208523645
lfingers 7.12502
lthumb -2.447605118006502 48.60314241178323
rclavicle -2.029554647964901e-15 -7.13711166816327e-16
rhumerus -22.937558586794736 -14.46432044116402 -80.08835299943145
rradius 33.53569654757886
rwrist 0.03842661649363288
rhand -18.815599754065754 23.682936861937055
rfingers 7.12502
rthumb 7.336811065988634 -5.615618071867111
51
root 0.902269067419201 17.752780856662223 18.0835743806881 -1.9104148307209563 -1.513675618078182 -4.378462734089709
lfemur -22.92454235359307 -3.337403365307334 -16.026332743145925
ltibia 22.248293203661973
lfoot -4.1808325823500105 -3.1661174908669105
ltoes -5.399882525182221
rfemur 6.13085218412745 2.6817930881983805 30.44415647439195
rtibia 34.612515915876806
rfoot -12.406381764163687 -4.03487729855722
rtoes -6.920684562628292
lowerback 9.703323828483216 2.3845282753945396 4.29665901940017
upperback -0.48669589231075683 3.8227453469611365 1.399152210401574
thorax -5.921271168916183 1.7432599172498124 -1.9312104513368256
lowerneck -16.128351953535624 -3.2819788897704414 -2.3870400602322923
upperneck 22.520935875484174 -4.295809184807874 1.4226181452954179
head 9.874629286187378 -2.013693484909651 0.42299863680694416
lclavicle -2.027884882820016e-15 -7.126551922059236e-16
lhumerus -37.56643015343796 10.80362689326111 78.78193834268734
lradius 18.484885091795473
lwrist 2.6014017173612185
lhand -28.226035881665368 20.19878723399871
lfingers 7.12502
lthumb -1.7160726964662485 50.10725392801554
rclavicle -2.0279799916126252e-15 -7.127057029312204e-16
rhumerus -24.049567558745586 -15.903226405170553 -79.42850396037906
rradius 32.902906606388456
rwrist 0.7644638991000576
rhand -18.819750092855152 23.85398400318353
rfingers 7.12502
rthumb 7.3619281760908155 -5.795918306290752
52
root 1.009300555784815 17.809761222433128 19.259029174053506 -2.7800504965302353 -1.271467612446576 -3.474470062291965
lfemur -20.585174311568863 -2.7728842030055434 -18.334972073431796
ltibia 25.395783353231895
lfoot -5.312498942244842 -4.951401720671512
ltoes -4.825673082108143
rfemur 2.283149178925809 0.9364290863300562 28.295350029649313
rtibia 44.876655572733
rfoot -2.9407984323422136 -1.9373472178019098
rtoes -4.227473476120906
lowerback 9.870478102266558 2.334745094420665 3.557403715535263
upperback -0.5402249936979606 3.7239092886725347 1.1376646239861865
thorax -6.009730005717378 1.6896562378678615 -1.8387959770496016
lowerneck -16.02643836891902 -3.287905435735338 -2.397847381804376
upperneck 22.63107083360254 -4.304045015376759 1.3866662138729235
head 9.90368211432503 -2.015160410031654 0.4264997093771199
lclavicle -2.0282670317915318e-15 -7.12899857684014e-16
lhumerus -37.44678860285011 11.465345371683178 78.2037062649578
lradius 17.876171884764567
lwrist 1.344338749680305
lhand -27.20278606531986 21.107385284203097
lfingers 7.12502
lthumb -0.6818542267474998 51.234845438840836
rclavicle -2.028892831771879e-15 -7.132886381297253e-16
rhumerus -25.865202394590042 -17.753171844084367 -78.5839889802557
rradius 31.9755487592335
rwrist 1.5632418548064884
rhand -18.658220856121297 23.67069954870731
rfingers 7.12502
rthumb 7.554753182695607 -6.1608279932640855
53
root 1.1073376377471624 17.88648400207873 20.21228485915168 -3.5568657514233313 -1.6845847900408355 -1.782680349234202
lfemur -17.282471566691676 -2.7054738251615547 -21.071717194322815
ltibia 26.251467626162693
lfoot -7.308398686279819 -4.142368513521439
ltoes -4.288103771050096
rfemur -3.8221320785782105 -0.06008672877654675 25.50309871907334
rtibia 56.18568290425621
rfoot 9.557182111614685 -2.2882156794008264
rtoes 8.062998211922672
lowerback 10.33733323353602 2.3438541568282707 1.932088185235398
upperback -0.437249382066095 3.5280128897463032 0.8372900804420638
thorax -6.123043719717515 1.6310225912807672 -1.373116142564004
lowerneck -16.078594074817953 -3.2371322749949005 -2.376760614981333
upperneck 22.63584076614965 -4.213626677434092 1.4428443710693055
head 9.903927219422231 -1.9717542456412902 0.46069050556460656
lclavicle -2.0282392436556285e-15 -7.128793369965473e-16
lhumerus -36.80520920878801 10.767624765727348 78.59774962995213
lradius 18.789508337658752
lwrist 3.775631898253929
lhand -27.194994846377398 20.38813649406964
lfingers 7.12502
lthumb -0.7270627338450653 50.821954581912536
rclavicle -2.0281488198689014e-15 -7.128135995592014e-16
rhumerus -27.15125775677341 -18.80699018633823 -77.99054278916581
rradius 30.98596809032822
rwrist 2.518141945592143
rhand -18.331327507469474 23.391742737084016
rfingers 7.12502
rthumb 7.905961717644545 -6.579047223621326
54
root 1.1674415377461638 17.910681830238047 21.470306329903295 -4.120453308272881 -1.7268434135857444 -1.0625127919501034
lfemur -13.617541133648931 -2.95654409124172 -22.63765562765387
ltibia 26.247835302360535
lfoot -9.149873547047465 -2.814478403130532
ltoes -2.8680446193463656
rfemur -10.15434826616351 -1.7169648934723267 24.18713799392695
rtibia 65.80580463706708
rfoot 12.103103204877636 -6.137491475950722
rtoes 15.291709781081243
lowerback 10.8461394832904 2.045242340305085 1.0642191034341035
upperback -0.22568526468119504 3.0417948755079975 0.7739960751712389
thorax -6.265021459972321 1.4435396925604962 -0.8109088244942388
lowerneck -16.122184989882953 -3.154923170778956 -2.418123248230643
upperneck 22.456049493585862 -4.0889331402429665 1.5056465244824797
head 9.817222384291647 -1.9201837723827746 0.5045987914537221
lclavicle -2.0284614987908564e-15 -7.130209022187587e-16
lhumerus -35.58735551015779 9.025832727474121 79.42144280970821
lradius 19.60337879675014
lwrist 6.434731599275066
lhand -27.818801104865134 19.521976707700045
lfingers 7.12502
lthumb -1.3108727872131805 50.01967390532547
rclavicle -2.028442869924271e-15 -7.130013512483327e-16
rhumerus -27.786255111483598 -19.486151782971202 -77.757652117335
rradius 29.648406266584796
rwrist 3.464901887017393
rhand -18.04680414889357 23.071409071281902
rfingers 7.12502
rthumb 8.221187813382647 -6.876542191015448
55
root 1.2029608441358381 17.930546241496547 22.65334655853242 -4.483857790337781 -1.4579536946156302 -0.2439677934066422
lfemur -9.697485117177884 -3.1230163968707103 -24.103370025618897
ltibia 25.691539312475154
lfoot -10.412047052404619 -1.762737031106564
ltoes -2.829932868634824
rfemur -16.029698164054714 -3.33467676629577 23.29662841922033
rtibia 70.97468836218661
rfoot 4.8782033727376 -9.838197823019515
rtoes 12.775392398673786
lowerback 11.124406747009399 1.536542216020354 0.0945170553257989
upperback 0.01779773836895869 2.2228066693185293 0.7648136915989565
thorax -6.245071138326249 1.0925031695061707 -0.14058208612479572
lowerneck -16.129632297769245 -3.0530885129614047 -2.491050655232814
upperneck 22.355617357501412 -3.8999873247365007 1.4248439239156236
head 9.767594858829323 -1.8559689407529423 0.5137498972432842
lclavicle -2.0292072561355177e-15 -7.1349621869028e-16
lhumerus -33.84774497499382 7.224355330043807 80.06514426573342
lradius 20.684000307082922
lwrist 5.952936497586063
lhand -28.32587050928103 19.857689215092535
lfingers 7.12502
lthumb -1.8102450089826656 50.198547525593504
rclavicle -2.0284241748572382e-15 -7.129894438676299e-16
rhumerus -28.20321199771741 -20.312546633895693 -77.389804016391
rradius 28.429042332040446
rwrist 4.750202382018139
rhand -17.73783354746619 22.71861341639455
rfingers 7.12502
rthumb 8.559206970002348 -7.1253333588198045
56
root 1.2090073603742737 17.91396452787665 23.827273494362878 -4.670256868015443 -0.9916238874879489 0.2471832007999124
lfemur -6.363095395577715 -3.2005745529148606 -25.112905939630622
ltibia 25.200778450174642
lfoot -11.994545771096952 -0.8898070789265033
ltoes -1.7508450496376025
rfemur -21.247047199441518 -4.3364894340099305 22.89370545866203
rtibia 71.53616849305845
rfoot -0.18751442862135104 -10.209542041336244
rtoes 10.133090464834096
lowerback 11.418059777082462 1.0275494068380557 -0.6468793382913283
upperback 0.14001531751203192 1.4505675034491143 0.8506928317669031
thorax -6.3141407365963165 0.7490610591118223 0.525605857460663
lowerneck -16.09576354538101 -2.9992607167487355 -2.6174102183562864
upperneck 22.35591119704627 -3.780368090533075 1.3620181586650417
head 9.764818747864933 -1.822194194660883 0.5170551436087363
lclavicle -2.0274871489134043e-15 -7.123977512433379e-16
lhumerus -31.866983680018198 5.3093759206746185 80.50861635846285
lradius 21.634219385387933
lwrist 5.441179939351514
lhand -28.725353175435146 19.976792461290426
lfingers 7.12502
lthumb -2.1205795449132157 50.33425685671341
rclavicle -2.0283379561393677e-15 -7.129343636123986e-16
rhumerus -29.130358551065868 -21.019260532295455 -77.05142826264682
rradius 27.783390784578923
rwrist 4.936720651876715
rhand -17.547985454087215 22.27295387850747
rfingers 7.12502
rthumb 8.74094092753408 -7.51042665724125
